# xmcd CD database file
#
# Track frame offsets:
#	150
#	24197
#	51912
#
# Disc length: 1012 seconds
#
# Revision: 0
# Processed by: cddbd v1.5.1PL2 Copyright (c) Steve Scherf et al.
# Submitted via: CDex 1.51
#
DISCID=1a03f203
DTITLE=松田樹利亜 - ちゃっかり〜ＴＡＩＴＯ　Ｘ２０００　ＶＯＩＣＥ　ＣＨＡＭＰ　ＴＶ−ＣＦイメージソング〜
DYEAR=1996
DGENRE=JPop
TTITLE0=ちゃっかり
TTITLE1=ＭＹ　ＬＯＶＥ〜そばにいたいから〜
TTITLE2=ちゃっかり（オリジナル・カラオケ）
EXTD=YEAR: 1996/5/25
EXTT0=
EXTT1=
EXTT2=
PLAYORDER=
